<?xml version="1.0" encoding="utf-8"?>
<!-- Svg Vector Icons : http://www.onlinewebfonts.com/icon -->
<!DOCTYPE svg PUBLIC "-//W3C//DTD SVG 1.1//EN" "http://www.w3.org/Graphics/SVG/1.1/DTD/svg11.dtd">
<svg version="1.1" xmlns="http://www.w3.org/2000/svg" xmlns:xlink="http://www.w3.org/1999/xlink" x="0px" y="0px" viewBox="0 0 256 256" enable-background="new 0 0 256 256" xml:space="preserve">
<metadata> Svg Vector Icons : http://www.onlinewebfonts.com/icon </metadata>
<g><g><path fill="#000000" d="M59.2,69H19.8c-5.9,0-9.8-3.9-9.8-9.8V19.8c0-5.9,3.9-9.8,9.8-9.8h39.3c5.9,0,9.8,3.9,9.8,9.8v39.3C69,65.1,65.1,69,59.2,69z M29.7,49.3h19.7V29.7H29.7V49.3z"/><path fill="#000000" d="M236.2,69h-39.4c-5.9,0-9.8-3.9-9.8-9.8V19.8c0-5.9,3.9-9.8,9.8-9.8h39.3c5.9,0,9.8,3.9,9.8,9.8v39.3C246,65.1,242.1,69,236.2,69z M206.7,49.3h19.7V29.7h-19.7V49.3z"/><path fill="#000000" d="M59.2,246H19.8c-5.9,0-9.8-3.9-9.8-9.8v-39.4c0-5.9,3.9-9.8,9.8-9.8h39.3c5.9,0,9.8,3.9,9.8,9.8v39.3C69,242.1,65.1,246,59.2,246z M29.7,226.3h19.7v-19.7H29.7V226.3z"/><path fill="#000000" d="M236.2,246h-39.4c-5.9,0-9.8-3.9-9.8-9.8v-39.4c0-5.9,3.9-9.8,9.8-9.8h39.3c5.9,0,9.8,3.9,9.8,9.8v39.3C246,242.1,242.1,246,236.2,246z M206.7,226.3h19.7v-19.7h-19.7V226.3z"/><path fill="#000000" d="M206.7,59.2"/><path fill="#000000" d="M206.7,196.8"/><path fill="#000000" d="M29.7,59.2"/><path fill="#000000" d="M39.5,187"/><path fill="#000000" d="M59.2,49.3"/><path fill="#000000" d="M196.8,49.3"/><path fill="#000000" d="M69,216.5"/><path fill="#000000" d="M196.8,206.7"/><path fill="#000000" d="M39.5,206.7c-5.9,0-9.8-3.9-9.8-9.8V59.2c0-5.9,3.9-9.8,9.8-9.8s9.8,3.9,9.8,9.8v137.7C49.3,202.7,45.4,206.7,39.5,206.7z"/><path fill="#000000" d="M196.8,226.3H59.2c-5.9,0-9.8-3.9-9.8-9.8c0-5.9,3.9-9.8,9.8-9.8h137.7c5.9,0,9.8,3.9,9.8,9.8C206.7,222.4,202.7,226.3,196.8,226.3z"/><path fill="#000000" d="M216.5,206.7c-5.9,0-9.8-3.9-9.8-9.8V59.2c0-5.9,3.9-9.8,9.8-9.8s9.8,3.9,9.8,9.8v137.7C226.3,202.7,222.4,206.7,216.5,206.7z"/><path fill="#000000" d="M196.8,49.3H59.2c-5.9,0-9.8-3.9-9.8-9.8c0-5.9,3.9-9.8,9.8-9.8h137.7c5.9,0,9.8,3.9,9.8,9.8C206.7,45.4,202.7,49.3,196.8,49.3z"/></g></g>
</svg>